<?xml version="1.0" encoding="utf-8"?>
<!-- Generator: Adobe Illustrator 24.0.2, SVG Export Plug-In . SVG Version: 6.00 Build 0)  -->
<svg version="1.0" id="Layer_1" xmlns="http://www.w3.org/2000/svg" xmlns:xlink="http://www.w3.org/1999/xlink" x="0px" y="0px"
	 viewBox="0 0 300 280" enable-background="new 0 0 300 280" xml:space="preserve">
<g>
	<path fill-rule="evenodd" clip-rule="evenodd" fill="#00529C" d="M97.31,147.52h5.01c1.96,0,2.7,0.67,2.7,2.33
		c0,1.59-0.74,2.27-2.7,2.27h-5.01V147.52L97.31,147.52z M89.54,164.24h7.76v-6.8h8.32c5.51,0,7.49-3.24,7.49-7.44
		c0-4.87-2.04-7.62-7.54-7.62H89.54V164.24L89.54,164.24z"/>
	<polygon fill-rule="evenodd" clip-rule="evenodd" fill="#00529C" points="115.67,142.38 136.57,142.38 136.57,147.71 
		123.44,147.71 123.44,150.65 135.64,150.65 135.64,155.97 123.44,155.97 123.44,158.91 136.57,158.91 136.57,164.24 115.67,164.24 
		115.67,142.38 	"/>
	<path fill-rule="evenodd" clip-rule="evenodd" fill="#00529C" d="M147.59,147.52h5.01c1.96,0,2.7,0.67,2.7,2.33
		c0,1.59-0.74,2.27-2.7,2.27h-5.01V147.52L147.59,147.52z M139.82,164.24h7.76v-6.8h8.32c5.51,0,7.49-3.24,7.49-7.44
		c0-4.87-2.04-7.62-7.54-7.62h-16.02V164.24L139.82,164.24z"/>
	<path fill-rule="evenodd" clip-rule="evenodd" fill="#00529C" d="M170.91,154.96c-3.8-0.64-5.37-3.09-5.37-6.15
		c0-5.66,4.98-7.19,11.37-7.19c8.76,0,12.36,2.54,12.64,7.16h-9.03c0-0.89-0.47-1.44-1.18-1.75c-0.69-0.34-1.57-0.46-2.42-0.46
		c-2.31,0-3.11,0.64-3.11,1.56c0,0.61,0.25,1.01,1.02,1.13l9.28,1.53c3.91,0.64,6.33,2.66,6.33,6.37c0,5.33-3.91,7.84-12.64,7.84
		c-5.97,0-12.5-0.92-12.53-7.35h9.36c0.03,0.73,0.28,1.22,0.83,1.56c0.58,0.31,1.43,0.46,2.64,0.46c2.42,0,3.08-0.73,3.08-1.78
		c0-0.64-0.36-1.28-1.4-1.47L170.91,154.96L170.91,154.96z"/>
	<polygon fill-rule="evenodd" clip-rule="evenodd" fill="#00529C" points="192.96,142.38 200.72,142.38 200.72,164.24 
		192.96,164.24 192.96,142.38 	"/>
	<path fill-rule="evenodd" clip-rule="evenodd" fill="#00529C" d="M229.5,155.73c-0.5,2.88-1.38,5.2-3.3,6.8
		c-1.9,1.59-4.87,2.48-9.61,2.48c-4.71,0-13.44-0.37-13.44-11.69c0-11.33,8.73-11.69,13.44-11.69c4.68,0,11.89,0.67,12.91,9.34
		h-8.76c-0.22-1.56-1.16-3.83-4.16-3.83c-3.17,0-5.18,1.75-5.18,6.18c0,4.44,1.96,6.18,4.79,6.18c2.45,0,3.91-1.13,4.54-3.77H229.5
		L229.5,155.73z"/>
	<path fill-rule="evenodd" clip-rule="evenodd" fill="#00529C" d="M239.66,153.31c0-4.44,2.01-6.18,5.18-6.18
		c3.17,0,5.18,1.75,5.18,6.18c0,4.44-2.01,6.18-5.18,6.18C241.67,159.49,239.66,157.75,239.66,153.31L239.66,153.31z M231.4,153.31
		c0,11.33,8.73,11.69,13.44,11.69c4.71,0,13.44-0.37,13.44-11.69c0-11.33-8.73-11.69-13.44-11.69
		C240.13,141.62,231.4,141.98,231.4,153.31L231.4,153.31z"/>
	<path fill-rule="evenodd" clip-rule="evenodd" fill="#00529C" d="M77.81,142.6c0.5-10.49-8.54-22.3-20.87-23.76l0.02-0.14
		c12.15,0,21.47,11.25,21.47,20.13c-0.01,1.85-0.16,2.99-0.42,3.82L77.81,142.6L77.81,142.6z M77.08,143.93
		c-0.81,0.99-1.83,1.98-3.02,2.93c-2.19-12.61-11.46-23.63-18.01-26.85l-0.14,0.1c6.59,5.41,14.44,15.9,17.5,27.24
		c-1.46,1.08-3.15,2.07-5.02,2.87c-6.22-7.09-12.01-20.76-13.88-29.43l-0.19,0.06c0.04,8.42,6.02,22.72,13.31,29.69
		c-1.62,0.64-3.36,1.14-5.18,1.43c-6.99-2.77-11.96-11.64-11.96-20.72c0-5.93,1.81-9.6,2.16-10.35l-0.15-0.06
		c-0.42,0.64-3.07,4.31-3.07,10.71c0,10.27,5.06,18.12,11.79,20.59c-2.3,0.25-4.72,0.17-7.2-0.34l-0.05,0.16
		c0.72,0.27,3.16,1.29,6.88,1.29c8.42,0,14.11-5.23,16.4-9.21L77.08,143.93L77.08,143.93z"/>
	<path fill-rule="evenodd" clip-rule="evenodd" fill="#0099D8" d="M60,115c-6.38,0-13.86,4.61-13.86,8.82c0,1.63,1.49,3,4.57,3
		c7.16,0,13.81-4.92,13.81-8.74C64.51,116.06,62.58,115,60,115L60,115z M62.54,117.96c0,3.22-6.19,7.16-11.36,7.16
		c-2.29,0-3.52-0.9-3.52-2.38c0-3.27,6.26-7.14,11.11-7.14C61.94,115.59,62.54,117.2,62.54,117.96L62.54,117.96z"/>
	<path fill-rule="evenodd" clip-rule="evenodd" fill="#F47937" d="M43.59,125.76c-0.18,0.31-0.9,1.72-0.9,3.16
		c0,2.67,2.7,5.15,7.67,5.15c9.56,0,20.6-7.03,20.6-13.56c0-2.93-2.77-4.52-4.7-4.85l-0.04,0.11c0.6,0.19,2.79,1.21,2.79,3.82
		c0,5.2-9.75,12.29-19.46,12.29c-3.72,0-6.06-1.83-6.06-4.51c0-0.85,0.18-1.4,0.22-1.56L43.59,125.76L43.59,125.76z"/>
	<path fill-rule="evenodd" clip-rule="evenodd" fill="#009D57" d="M74.9,121c0.26,0.2,1.84,1.51,1.84,3.99
		c0,8.46-13.25,16.78-24.97,16.78c-6.99,0-10.17-3.45-10.03-6.51h0.13c0.27,1.59,2.54,4.44,8.66,4.44
		c11.73,0,24.83-8.61,24.83-16.15c0-1.29-0.35-2.1-0.55-2.46L74.9,121L74.9,121z"/>
	<path fill-rule="evenodd" clip-rule="evenodd" fill="#ED1B2E" d="M79.33,128.9c0.05,0.18,0.34,0.99,0.34,2.26
		c0,9.41-13.41,17.46-25.08,17.46c-6,0-9.14-2.92-9.8-4.1l0.11-0.08c1.66,1.45,4.93,2.56,8.75,2.56c10.3,0,25.67-7.84,25.54-18.07
		L79.33,128.9L79.33,128.9z"/>
</g>
</svg>
